<svg width="18" height="18" viewBox="0 0 18 18" fill="none" xmlns="http://www.w3.org/2000/svg">
<path d="M14.2734 17.7501C13.5109 17.7501 12.4399 17.4743 10.8359 16.5783C8.88556 15.4845 7.37696 14.4747 5.43712 12.54C3.56681 10.6708 2.65665 9.46067 1.38282 7.1427C-0.0562407 4.52552 0.189072 3.15364 0.46329 2.56731C0.789853 1.86653 1.27188 1.44739 1.89493 1.03138C2.24882 0.799515 2.62332 0.600758 3.01368 0.437626C3.05274 0.420829 3.08907 0.404813 3.12149 0.39036C3.31485 0.303251 3.60782 0.17161 3.97892 0.312235C4.22657 0.405204 4.44767 0.595438 4.79376 0.937235C5.50353 1.63724 6.47345 3.19622 6.83126 3.96184C7.07149 4.47786 7.23048 4.81849 7.23087 5.20052C7.23087 5.64778 7.00587 5.9927 6.73282 6.36497C6.68165 6.43489 6.63087 6.50169 6.58165 6.56653C6.28438 6.95716 6.21915 7.07005 6.26212 7.27161C6.34923 7.67669 6.99884 8.88255 8.06642 9.94778C9.13399 11.013 10.3051 11.6216 10.7117 11.7083C10.9219 11.7533 11.0371 11.6853 11.4402 11.3775C11.4981 11.3333 11.5574 11.2876 11.6195 11.2419C12.0359 10.9322 12.3649 10.713 12.8016 10.713H12.8039C13.184 10.713 13.5094 10.8779 14.0484 11.1497C14.7516 11.5044 16.3574 12.4618 17.0617 13.1724C17.4043 13.5177 17.5953 13.738 17.6887 13.9853C17.8293 14.3575 17.6969 14.6493 17.6106 14.8447C17.5961 14.8771 17.5801 14.9126 17.5633 14.9521C17.3989 15.3417 17.1989 15.7155 16.966 16.0685C16.5508 16.6896 16.1301 17.1704 15.4277 17.4974C15.0671 17.668 14.6724 17.7544 14.2734 17.7501Z" fill="#F96D5A"/>
</svg>
