<svg width="28" height="28" viewBox="0 0 28 28" fill="none" xmlns="http://www.w3.org/2000/svg">
<path d="M13.3547 0.682691C6.27469 1.01602 0.68936 6.86936 0.710693 13.9054C0.714201 15.9764 1.21006 18.017 2.15736 19.8587L0.746693 26.66C0.729481 26.7451 0.733988 26.8331 0.759797 26.9159C0.785606 26.9987 0.831883 27.0737 0.894351 27.1339C0.956818 27.1941 1.03346 27.2376 1.11718 27.2604C1.20091 27.2831 1.28902 27.2844 1.37336 27.264L8.08536 25.6854C9.86307 26.5638 11.8146 27.034 13.7974 27.0614C21.0334 27.172 27.0654 21.468 27.2907 14.288C27.5334 6.58802 21.1347 0.313358 13.3547 0.681358V0.682691ZM21.364 21.172C20.3967 22.1359 19.2486 22.8994 17.9856 23.4188C16.7227 23.9382 15.3696 24.2032 14.004 24.1987C12.3974 24.2036 10.8116 23.8348 9.37203 23.1214L8.43736 22.6587L4.32136 23.6267L5.18803 19.452L4.72669 18.556C3.97883 17.1063 3.59101 15.4979 3.59603 13.8667C3.59603 11.1067 4.67869 8.51069 6.64403 6.56002C8.60295 4.62096 11.2477 3.53288 14.004 3.53202C16.7854 3.53202 19.3987 4.60669 21.364 6.55869C22.3323 7.51287 23.1007 8.65049 23.6243 9.90504C24.1478 11.1596 24.4161 12.5059 24.4134 13.8654C24.4134 16.6014 23.3134 19.2387 21.364 21.1734V21.172Z" fill="white"/>
<path d="M20.456 16.7267L17.8814 15.9934C17.7152 15.9457 17.5393 15.9435 17.3721 15.9872C17.2048 16.0308 17.0524 16.1186 16.9307 16.2414L16.3014 16.8787C16.1712 17.0106 16.005 17.1012 15.8235 17.1391C15.6421 17.177 15.4535 17.1607 15.2814 17.092C14.064 16.6027 11.5014 14.3413 10.8467 13.2093C10.7549 13.0495 10.713 12.8658 10.7263 12.6819C10.7396 12.4981 10.8075 12.3224 10.9214 12.1774L11.4707 11.4707C11.5765 11.3353 11.6434 11.1737 11.6643 11.0031C11.6852 10.8326 11.6593 10.6596 11.5894 10.5027L10.5067 8.07068C10.4455 7.93475 10.3535 7.81488 10.2382 7.72048C10.1228 7.62608 9.98704 7.55973 9.84167 7.52665C9.6963 7.49357 9.54524 7.49466 9.40036 7.52983C9.25548 7.565 9.12073 7.6333 9.00671 7.72935C8.28804 8.33335 7.43471 9.24935 7.33204 10.2667C7.14937 12.0573 7.92271 14.3147 10.848 17.0267C14.228 20.1587 16.936 20.5733 18.6974 20.148C19.6974 19.908 20.4974 18.944 21 18.156C21.0804 18.0309 21.1303 17.8886 21.1457 17.7406C21.1611 17.5926 21.1416 17.4431 21.0886 17.3041C21.0357 17.1651 20.9509 17.0404 20.8411 16.9401C20.7312 16.8398 20.5993 16.7667 20.456 16.7267Z" fill="white"/>
</svg>
