<?xml version="1.0" encoding="utf-8"?><svg xmlns="http://www.w3.org/2000/svg" xmlns:xlink="http://www.w3.org/1999/xlink"><symbol viewBox="0 0 12 7" id="arrow-top" xmlns="http://www.w3.org/2000/svg"><path d="M0 5.676L1.4 7 6 2.672 10.6 7 12 5.676 6 0 0 5.676z"/></symbol><symbol viewBox="0 0 18 18" id="call" xmlns="http://www.w3.org/2000/svg"><path d="M14.273 17.75c-.762 0-1.833-.276-3.437-1.172-1.95-1.093-3.459-2.103-5.399-4.038-1.87-1.87-2.78-3.08-4.054-5.397-1.44-2.617-1.194-3.99-.92-4.576.327-.7.809-1.12 1.432-1.536A6.92 6.92 0 013.014.438L3.12.39c.194-.087.487-.218.858-.078.248.093.469.283.815.625.71.7 1.68 2.26 2.037 3.025.24.516.4.856.4 1.239 0 .447-.225.792-.498 1.164-.051.07-.102.137-.151.202-.298.39-.363.503-.32.705.087.405.737 1.61 1.804 2.676 1.068 1.065 2.24 1.674 2.646 1.76.21.045.325-.023.728-.33.058-.045.117-.09.18-.136.416-.31.745-.529 1.182-.529h.002c.38 0 .705.165 1.244.437.704.354 2.31 1.312 3.014 2.022.342.346.533.566.627.813.14.373.008.664-.078.86l-.048.107c-.164.39-.364.764-.597 1.117-.415.62-.836 1.101-1.538 1.428-.36.171-.756.257-1.155.253z"/></symbol><symbol viewBox="0 0 25 25" id="close" xmlns="http://www.w3.org/2000/svg"><path d="M23.649 0L12.5 11.149 1.351 0 0 1.351 11.149 12.5 0 23.649 1.351 25 12.5 13.851 23.649 25 25 23.649 13.851 12.5 25 1.351 23.649 0z"/></symbol><symbol viewBox="0 0 28 28" id="double-arrow-right1" xmlns="http://www.w3.org/2000/svg"><path d="M7.467 21l-1.634-1.633L11.171 14 5.833 8.633 7.467 7l7 7-7 7zm7.7 0l-1.634-1.633L18.871 14l-5.338-5.367L15.167 7l7 7-7 7z"/></symbol><symbol viewBox="0 0 18 14" id="double-arrow-right2" xmlns="http://www.w3.org/2000/svg"><path d="M2.467 14L.833 12.367 6.171 7 .833 1.633 2.467 0l7 7-7 7zm7.7 0l-1.634-1.633L13.871 7 8.533 1.633 10.167 0l7 7-7 7z"/></symbol><symbol viewBox="0 0 24 24" id="mail" xmlns="http://www.w3.org/2000/svg"><path d="M4 20c-.55 0-1.021-.196-1.413-.588A1.922 1.922 0 012 18V6c0-.55.196-1.021.588-1.413A1.922 1.922 0 014 4h16c.55 0 1.021.196 1.413.588.392.392.588.863.587 1.412v12c0 .55-.196 1.021-.588 1.413A1.922 1.922 0 0120 20H4zm8-7L4 8v10h16V8l-8 5zm0-2l8-5H4l8 5zM4 8V6v12V8z"/></symbol><symbol viewBox="0 0 7 12" id="next" xmlns="http://www.w3.org/2000/svg"><path d="M1.324 12L0 10.6 4.328 6 0 1.4 1.324 0 7 6l-5.676 6z"/></symbol><symbol viewBox="0 0 7 12" id="previous" xmlns="http://www.w3.org/2000/svg"><path d="M5.676 12L7 10.6 2.672 6 7 1.4 5.676 0 0 6l5.676 6z"/></symbol><symbol viewBox="0 0 28 28" id="wa" xmlns="http://www.w3.org/2000/svg"><path fill-rule="evenodd" clip-rule="evenodd" d="M14 0C6.262 0 0 6.258 0 14c0 2.92.89 5.62 2.472 7.94a.7.7 0 01.087.602L1.137 27.3l4.66-1.608a.7.7 0 01.602.077 13.917 13.917 0 007.6 2.231C21.743 28 28 21.742 28 14S21.742 0 14 0zM8.27 6.103l2.548 4.211-1.06 1.05a.7.7 0 00-.11.842c1.62 2.804 3.537 4.985 6.223 6.17a.7.7 0 00.777-.143l1.127-1.126 4.112 2.57c-.455 1.025-1.049 1.635-1.728 1.99-.787.412-1.747.49-2.844.263-2.193-.455-4.841-2.178-7-4.386-2.158-2.208-3.829-4.893-4.254-7.077-.213-1.092-.12-2.033.284-2.778.347-.642.937-1.192 1.925-1.586z"/></symbol><symbol viewBox="0 0 24 24" id="whatsapp" xmlns="http://www.w3.org/2000/svg"><path d="M11.516 2.012c-5.31.25-9.499 4.64-9.483 9.917a9.798 9.798 0 001.085 4.465L2.06 21.495a.387.387 0 00.47.453l5.034-1.184a9.983 9.983 0 004.284 1.032c5.427.083 9.951-4.195 10.12-9.58.182-5.775-4.617-10.48-10.452-10.205v.001zm6.007 15.367a7.786 7.786 0 01-5.52 2.27 7.77 7.77 0 01-3.474-.808l-.701-.347-3.087.726.65-3.13-.346-.673a7.62 7.62 0 01-.848-3.517c0-2.07.812-4.017 2.286-5.48a7.85 7.85 0 015.52-2.27c2.086 0 4.046.805 5.52 2.27a7.673 7.673 0 012.287 5.48c0 2.051-.825 4.03-2.287 5.48z"/><path d="M16.842 14.045l-1.931-.55a.723.723 0 00-.713.186l-.472.478a.706.706 0 01-.765.16c-.913-.367-2.835-2.063-3.326-2.912a.694.694 0 01.056-.774l.412-.53a.71.71 0 00.089-.726L9.38 7.553a.723.723 0 00-1.125-.256c-.539.453-1.179 1.14-1.256 1.903-.137 1.343.443 3.036 2.637 5.07 2.535 2.349 4.566 2.66 5.887 2.341.75-.18 1.35-.903 1.727-1.494a.714.714 0 00-.408-1.072z"/></symbol><symbol viewBox="0 0 28 28" id="whatsapp1" xmlns="http://www.w3.org/2000/svg"><path d="M13.355.683C6.275 1.016.689 6.869.71 13.905c.003 2.071.5 4.112 1.446 5.954L.747 26.66a.516.516 0 00.626.604l6.712-1.579a13.31 13.31 0 005.712 1.376c7.236.111 13.268-5.593 13.494-12.773.242-7.7-6.156-13.975-13.936-13.607v.002zm8.009 20.489a10.378 10.378 0 01-7.36 3.027 10.36 10.36 0 01-4.632-1.078l-.935-.462-4.116.968.867-4.175-.461-.896a10.16 10.16 0 01-1.131-4.69c0-2.76 1.083-5.355 3.048-7.306a10.467 10.467 0 017.36-3.028c2.781 0 5.395 1.075 7.36 3.027a10.23 10.23 0 013.05 7.306c0 2.736-1.1 5.374-3.05 7.308v-.001z"/><path d="M20.456 16.727l-2.575-.734a.963.963 0 00-.95.248l-.63.638a.942.942 0 01-1.02.213c-1.217-.49-3.78-2.75-4.434-3.883a.925.925 0 01.074-1.032l.55-.706a.946.946 0 00.118-.968L10.507 8.07a.965.965 0 00-1.5-.342c-.719.604-1.572 1.52-1.675 2.538-.183 1.79.59 4.048 3.516 6.76 3.38 3.132 6.088 3.546 7.85 3.121 1-.24 1.8-1.204 2.302-1.992a.95.95 0 00-.544-1.43z"/></symbol></svg>