<svg width="54" height="54" viewBox="0 0 54 54" fill="none" xmlns="http://www.w3.org/2000/svg">
<path fill-rule="evenodd" clip-rule="evenodd" d="M38.0633 15.5363C38.0633 19.4299 37.0958 24.5081 35.6074 23.7375C34.9988 25.7251 33.721 27.4407 31.9911 28.5931C30.2612 29.7456 28.1857 30.2637 26.1171 30.0597C24.0485 29.8556 22.1143 28.9419 20.6428 27.4736C19.1714 26.0054 18.2535 24.0732 18.045 22.005C16.5679 19.4209 14.6306 14.2425 19.611 10.206C19.701 10.1768 19.755 9.93375 19.836 9.576C20.1443 8.22263 20.8271 5.21438 25.1348 5.78925C28.4569 6.23138 38.0633 7.94588 38.0633 15.5363ZM33.7815 17.991C33.7815 17.991 33.273 19.4783 33.75 21.1354C33.7438 22.9023 33.0451 24.5963 31.8038 25.8538C30.5624 27.1112 28.8776 27.8318 27.1109 27.8608C25.3442 27.8898 23.6366 27.2249 22.3547 26.0089C21.0727 24.7929 20.3187 23.1228 20.2545 21.357C20.4176 20.7383 20.4176 19.6909 20.4165 18.5265C20.4154 16.4261 20.4131 13.9478 21.375 12.9375C28.1126 17.4251 33.7815 17.991 33.7815 17.991Z" fill="#F96D5A"/>
<path d="M14.625 40.5C14.625 39.2827 15.2696 38.2162 16.2371 37.6222C16.2003 37.4822 16.1658 37.3416 16.1336 37.2004C15.9629 36.4318 15.8296 35.6554 15.7343 34.8739C15.6376 34.1251 15.5794 33.3718 15.5599 32.6171C10.8113 34.4812 6.75 37.7302 6.75 41.1412V47.25H47.25V41.1412C47.25 37.8742 43.5262 34.7569 39.0397 32.8612V32.8927C39.06 33.579 39.0217 34.3665 38.9475 35.1236C38.88 35.8256 38.7799 36.5254 38.6595 37.125H39.375C39.5839 37.1251 39.7886 37.1834 39.9662 37.2932C40.1438 37.4031 40.2874 37.5603 40.3808 37.7471L41.5058 39.9971C41.5845 40.1535 41.625 40.3256 41.625 40.5V42.75C41.625 43.0484 41.5065 43.3345 41.2955 43.5455C41.0845 43.7565 40.7984 43.875 40.5 43.875H38.25V41.625H39.375V40.7655L38.6798 39.375H35.5702L34.875 40.7655V41.625H36V43.875H33.75C33.4516 43.875 33.1655 43.7565 32.9545 43.5455C32.7435 43.3345 32.625 43.0484 32.625 42.75V40.5C32.625 40.3256 32.6655 40.1535 32.7443 39.9971L33.8693 37.7471C33.9626 37.5603 34.1061 37.4031 34.2838 37.2932C34.4614 37.1834 34.6661 37.1251 34.875 37.125H36.3544C36.3791 37.0282 36.4039 36.9214 36.4286 36.8032C36.5411 36.2734 36.6413 35.6017 36.7088 34.9076C36.7763 34.2124 36.8077 33.5227 36.7909 32.9557C36.7867 32.7208 36.7683 32.4864 36.7357 32.2537C36.711 32.094 36.6862 32.0209 36.6817 32.0051C36.6806 32.0017 36.6795 32.0006 36.6817 32.0029L36.6851 32.0017C36.0882 31.8163 35.4844 31.6538 34.875 31.5146C34.3091 31.3852 33.7241 32.1637 33.4688 32.6509H20.25C20.2171 32.5882 20.1849 32.5252 20.1532 32.4619C19.9147 31.9871 19.6211 31.401 19.125 31.5146C18.6919 31.6125 18.2587 31.725 17.8256 31.8487C17.8117 32.046 17.8057 32.2438 17.8076 32.4416C17.8121 33.0637 17.8717 33.8254 17.9674 34.5949C18.063 35.3621 18.1924 36.1091 18.3274 36.6986C18.3656 36.8685 18.4039 37.0215 18.4399 37.1531C19.0831 37.2377 19.6882 37.5058 20.183 37.9254C20.6777 38.345 21.0411 38.8982 21.2295 39.519C21.4179 40.1397 21.4235 40.8016 21.2455 41.4254C21.0674 42.0492 20.7134 42.6085 20.2258 43.0363C19.7381 43.4642 19.1375 43.7424 18.4959 43.8377C17.8542 43.933 17.1987 43.8414 16.6077 43.5738C16.0168 43.3062 15.5155 42.8739 15.1638 42.3288C14.8122 41.7836 14.6251 41.1487 14.625 40.5Z" fill="#F96D5A"/>
<path d="M19.125 40.5C19.125 41.1458 18.6053 41.6419 18 41.6419C17.3947 41.6419 16.875 41.1469 16.875 40.5C16.875 39.8543 17.3947 39.3582 18 39.3582C18.6053 39.3582 19.125 39.8532 19.125 40.5Z" fill="#F96D5A"/>
</svg>
