<svg width="64" height="64" viewBox="0 0 64 64" fill="none" xmlns="http://www.w3.org/2000/svg">
<path fill-rule="evenodd" clip-rule="evenodd" d="M31.8267 22.004H35.3333C35.6869 22.004 36.0261 21.8635 36.2761 21.6135C36.5262 21.3634 36.6667 21.0243 36.6667 20.6707C36.6667 20.3171 36.5262 19.9779 36.2761 19.7279C36.0261 19.4778 35.6869 19.3373 35.3333 19.3373H31.8267C31.3613 19.3373 30.82 19.4133 30.2933 19.6707C28.3946 20.5973 27.32 22.2 26.7293 23.7613C26.5293 24.288 26.3813 24.8213 26.272 25.3373H29.016C29.076 25.124 29.144 24.9133 29.2227 24.704C29.652 23.568 30.3493 22.6107 31.4627 22.0667C31.5783 22.0191 31.7017 21.9977 31.8267 22.004ZM24 26.6707C23.264 26.6707 22.6493 27.2787 22.8493 27.988C23.6186 30.7333 26.7507 32.8693 30.6667 33.2693V35.3467C29.74 35.3693 28.7773 35.444 27.96 35.6813C27.3226 35.868 26.6467 36.1853 26.1293 36.7667C25.588 37.3747 25.3333 38.1427 25.3333 39C25.3333 39.8573 25.5867 40.6267 26.128 41.236C26.6453 41.8187 27.3213 42.1387 27.96 42.3253C28.3866 42.4493 28.8533 42.5293 29.3333 42.58V39.896C29.1216 39.8673 28.9122 39.8236 28.7067 39.7653C28.3467 39.6587 28.188 39.5413 28.1226 39.4667C28.08 39.4187 28 39.3107 28 39C28 38.6933 28.08 38.5867 28.12 38.54C28.1867 38.4653 28.344 38.3467 28.7067 38.2413C29.2173 38.0933 29.876 38.0373 30.6667 38.016V45.3373H26.6667V48.004H37.3333V45.3373H33.3333V37.9547C34.8027 37.84 35.9933 37.5173 36.8893 36.94C38.1493 36.1267 38.6667 34.9173 38.6667 33.6333C38.6772 32.9476 38.5071 32.2711 38.1733 31.672C39.672 30.7253 40.7427 29.4427 41.1507 27.988C41.3507 27.2787 40.7373 26.6707 40 26.6707H24ZM35.444 34.6973C35.0667 34.9413 34.412 35.1733 33.3333 35.2773V33.2693C34.1341 33.1891 34.925 33.0301 35.6947 32.7947C35.9147 33.004 36 33.2587 36 33.6347C36 34.128 35.8507 34.436 35.444 34.6973Z" fill="#F96D5A"/>
<path fill-rule="evenodd" clip-rule="evenodd" d="M42.6667 42.6667H56V21.3333H42.6667V8H21.3333V21.3333H8V42.6667H21.3333V56H42.6667V42.6667ZM40 53.3333V40H53.3333V24H40V10.6667H24V24H10.6667V40H24V53.3333H40Z" fill="#F96D5A"/>
</svg>
