<svg width="44" height="44" viewBox="0 0 44 44" fill="none" xmlns="http://www.w3.org/2000/svg">
<path d="M30.25 10.0833C31.2225 10.0833 32.1551 9.69703 32.8427 9.00939C33.5304 8.32176 33.9167 7.38913 33.9167 6.41667C33.9167 5.44421 33.5304 4.51157 32.8427 3.82394C32.1551 3.13631 31.2225 2.75 30.25 2.75C29.2775 2.75 28.3449 3.13631 27.6573 3.82394C26.9696 4.51157 26.5833 5.44421 26.5833 6.41667C26.5833 7.38913 26.9696 8.32176 27.6573 9.00939C28.3449 9.69703 29.2775 10.0833 30.25 10.0833ZM23.65 35.5667L25.4833 27.5L29.3333 31.1667V42.1667H33V28.4167L29.15 24.75L30.25 19.25C31.5061 20.6896 33.0559 21.8435 34.7951 22.6341C36.5344 23.4246 38.4228 23.8336 40.3333 23.8333V20.1667C37.1067 20.2217 34.1 18.535 32.45 15.7667L30.6167 12.8333C29.9567 11.7333 28.7833 11 27.5 11C26.95 11 26.5833 11.1833 26.0333 11.1833L16.5 15.2167V23.8333H20.1667V17.6L23.4667 16.3167L20.5333 31.1667L11.55 29.3333L10.8167 33L23.65 35.5667ZM7.33334 16.5C6.84711 16.5 6.38079 16.3068 6.03698 15.963C5.69316 15.6192 5.50001 15.1529 5.50001 14.6667C5.50001 14.1804 5.69316 13.7141 6.03698 13.3703C6.38079 13.0265 6.84711 12.8333 7.33334 12.8333H12.8333V16.5H7.33334ZM9.16667 9.16667C8.68044 9.16667 8.21413 8.97351 7.87031 8.6297C7.52649 8.28588 7.33334 7.81956 7.33334 7.33333C7.33334 6.8471 7.52649 6.38079 7.87031 6.03697C8.21413 5.69315 8.68044 5.5 9.16667 5.5H18.3333V9.16667H9.16667ZM5.50001 23.8333C5.01377 23.8333 4.54746 23.6402 4.20364 23.2964C3.85983 22.9525 3.66667 22.4862 3.66667 22C3.66667 21.5138 3.85983 21.0475 4.20364 20.7036C4.54746 20.3598 5.01377 20.1667 5.50001 20.1667H12.8333V23.8333H5.50001Z" fill="#F96D5A"/>
</svg>
