<svg width="44" height="44" viewBox="0 0 44 44" fill="none" xmlns="http://www.w3.org/2000/svg">
<path d="M32.0833 11.9166L42.1667 16.5V40.3333L29.3333 34.8333M29.3333 34.8333L14.6667 40.3333M29.3333 34.8333V22M14.6667 40.3333L1.83334 34.8333V11L11 14.6666M14.6667 40.3333V22M22 29.8338C22 29.8338 11 21.0833 11 12.8333C11 5.95831 16.5 1.83331 22 1.83331C27.5 1.83331 33 5.95831 33 12.8333C33 21.0833 22 29.8338 22 29.8338ZM23.8333 12.8333C23.8333 12.3471 23.6402 11.8808 23.2964 11.537C22.9526 11.1931 22.4862 11 22 11C21.5138 11 21.0475 11.1931 20.7036 11.537C20.3598 11.8808 20.1667 12.3471 20.1667 12.8333C20.1667 13.3195 20.3598 13.7859 20.7036 14.1297C21.0475 14.4735 21.5138 14.6666 22 14.6666C22.4862 14.6666 22.9526 14.4735 23.2964 14.1297C23.6402 13.7859 23.8333 13.3195 23.8333 12.8333Z" stroke="#F96D5A" stroke-width="3"/>
</svg>
